<?xml version="1.0" encoding="utf-8"?>
<!-- Generator: Adobe Illustrator 25.3.1, SVG Export Plug-In . SVG Version: 6.00 Build 0)  -->
<svg version="1.1" id="Layer_2" xmlns="http://www.w3.org/2000/svg" xmlns:xlink="http://www.w3.org/1999/xlink" x="0px" y="0px"
	 viewBox="0 0 102 27" style="enable-background:new 0 0 102 27;" xml:space="preserve">
<style type="text/css">
	.st0{fill:#FFFFFF;}
</style>
<g>
	<path class="st0" d="M45.13,1.68c0,0,2.71,0.2,6.28-0.65v25.28h-6.28V1.68z"/>
	<rect x="53.23" y="21.31" class="st0" width="24.3" height="4.84"/>
	<polygon class="st0" points="53.11,17.05 60.06,17.05 65.26,9.92 70.23,16.72 77.68,16.79 70.13,6.68 67.37,6.98 71.11,1.91 
		63.55,2.19 	"/>
	<path class="st0" d="M101,16.84h-2.91V1.28h-6.2h-1.86l-9.89,15.56v4.84h11.74v4.59h6.2v-4.59H101V16.84z M86.37,16.84l5.52-8.66
		v8.66H86.37z"/>
	<path class="st0" d="M16.14,21.19v-4.36h8.13v-3.24v-0.68V1.7V1c-2.05,0.67-6.1,0.7-6.1,0.7v2.94H7.89V1.7V1
		c-2.05,0.67-6.1,0.7-6.1,0.7v11.22v0.68v3.24h8.17v4.36H1v4.93h24.13v-4.93H16.14z M7.89,8.4h10.28v4.52H7.89V8.4z"/>
	<path class="st0" d="M35.68,1.28h-1.39c-3.95,0-7.15,3.2-7.15,7.15v10.53c0,3.95,3.2,7.15,7.15,7.15h1.39
		c3.95,0,7.15-3.2,7.15-7.15V8.44C42.84,4.49,39.63,1.28,35.68,1.28z M36.98,20.04c0,1.1-0.89,1.99-1.99,1.99h0
		c-1.1,0-1.99-0.89-1.99-1.99V7.36c0-1.1,0.89-1.99,1.99-1.99h0c1.1,0,1.99,0.89,1.99,1.99V20.04z"/>
</g>
</svg>
